REM DIRINDEX 1\4,1\2\5,1\2\6,1\2\7,1\3\8,1\3\9,1\3\10,1\3\11
REM DIRNAME folder01,folder02,folder03,folder04,folder05,folder06,folder07,folder08,folder09,folder10,folder11
TITLE ""
FILE "t_k_213-225.mp3" MP3
  TRACK 01 AUDIO
    TITLE "5:cjc108_0639"
    INDEX 01 00:00:00
  TRACK 02 AUDIO
    TITLE "0:"
    INDEX 01 00:01:19
  TRACK 03 AUDIO
    TITLE "6:cjc108_0640"
    INDEX 01 00:01:32
  TRACK 04 AUDIO
    TITLE "0:"
    INDEX 01 00:02:55
  TRACK 05 AUDIO
    TITLE "7:cjc108_0641"
    INDEX 01 00:02:71
  TRACK 06 AUDIO
    TITLE "0:"
    INDEX 01 00:07:58
  TRACK 07 AUDIO
    TITLE "5:cjc108_0642"
    INDEX 01 00:08:40
  TRACK 08 AUDIO
    TITLE "0:"
    INDEX 01 00:09:55
  TRACK 09 AUDIO
    TITLE "6:cjc108_0643"
    INDEX 01 00:09:67
  TRACK 10 AUDIO
    TITLE "0:"
    INDEX 01 00:11:74
  TRACK 11 AUDIO
    TITLE "7:cjc108_0644"
    INDEX 01 00:12:11
  TRACK 12 AUDIO
    TITLE "0:"
    INDEX 01 00:17:53
  TRACK 13 AUDIO
    TITLE "5:cjc108_0645"
    INDEX 01 00:18:33
  TRACK 14 AUDIO
    TITLE "0:"
    INDEX 01 00:19:56
  TRACK 15 AUDIO
    TITLE "6:cjc108_0646"
    INDEX 01 00:19:69
  TRACK 16 AUDIO
    TITLE "0:"
    INDEX 01 00:21:02
  TRACK 17 AUDIO
    TITLE "7:cjc108_0647"
    INDEX 01 00:21:17
  TRACK 18 AUDIO
    TITLE "0:"
    INDEX 01 00:26:07
  TRACK 19 AUDIO
    TITLE "5:cjc108_0648"
    INDEX 01 00:26:62
  TRACK 20 AUDIO
    TITLE "0:"
    INDEX 01 00:28:23
  TRACK 21 AUDIO
    TITLE "6:cjc108_0649"
    INDEX 01 00:28:47
  TRACK 22 AUDIO
    TITLE "0:"
    INDEX 01 00:30:12
  TRACK 23 AUDIO
    TITLE "7:cjc108_0650"
    INDEX 01 00:30:48
  TRACK 24 AUDIO
    TITLE "0:"
    INDEX 01 00:35:66
  TRACK 25 AUDIO
    TITLE "5:cjc108_0651"
    INDEX 01 00:36:52
  TRACK 26 AUDIO
    TITLE "0:"
    INDEX 01 00:37:67
  TRACK 27 AUDIO
    TITLE "6:cjc108_0652"
    INDEX 01 00:38:08
  TRACK 28 AUDIO
    TITLE "0:"
    INDEX 01 00:39:74
  TRACK 29 AUDIO
    TITLE "7:cjc108_0653"
    INDEX 01 00:40:11
  TRACK 30 AUDIO
    TITLE "0:"
    INDEX 01 00:45:20
  TRACK 31 AUDIO
    TITLE "5:cjc108_0654"
    INDEX 01 00:46:00
  TRACK 32 AUDIO
    TITLE "0:"
    INDEX 01 00:47:13
  TRACK 33 AUDIO
    TITLE "6:cjc108_0655"
    INDEX 01 00:47:25
  TRACK 34 AUDIO
    TITLE "0:"
    INDEX 01 00:50:31
  TRACK 35 AUDIO
    TITLE "7:cjc108_0656"
    INDEX 01 00:50:42
  TRACK 36 AUDIO
    TITLE "0:"
    INDEX 01 00:56:16
  TRACK 37 AUDIO
    TITLE "5:cjc108_0657"
    INDEX 01 00:56:63
  TRACK 38 AUDIO
    TITLE "0:"
    INDEX 01 00:58:11
  TRACK 39 AUDIO
    TITLE "6:cjc108_0658"
    INDEX 01 00:58:20
  TRACK 40 AUDIO
    TITLE "0:"
    INDEX 01 00:59:49
  TRACK 41 AUDIO
    TITLE "7:cjc108_0659"
    INDEX 01 00:59:65
  TRACK 42 AUDIO
    TITLE "0:"
    INDEX 01 01:04:47
  TRACK 43 AUDIO
    TITLE "5:cjc108_0660"
    INDEX 01 01:05:24
  TRACK 44 AUDIO
    TITLE "0:"
    INDEX 01 01:06:51
  TRACK 45 AUDIO
    TITLE "6:cjc108_0661"
    INDEX 01 01:06:53
  TRACK 46 AUDIO
    TITLE "0:"
    INDEX 01 01:07:74
  TRACK 47 AUDIO
    TITLE "7:cjc108_0662"
    INDEX 01 01:08:25
  TRACK 48 AUDIO
    TITLE "0:"
    INDEX 01 01:13:28
  TRACK 49 AUDIO
    TITLE "5:cjc108_0663"
    INDEX 01 01:14:08
  TRACK 50 AUDIO
    TITLE "0:"
    INDEX 01 01:15:39
  TRACK 51 AUDIO
    TITLE "6:cjc108_0664"
    INDEX 01 01:15:46
  TRACK 52 AUDIO
    TITLE "0:"
    INDEX 01 01:18:58
  TRACK 53 AUDIO
    TITLE "7:cjc108_0665"
    INDEX 01 01:18:72
  TRACK 54 AUDIO
    TITLE "0:"
    INDEX 01 01:24:65
  TRACK 55 AUDIO
    TITLE "5:cjc108_0666"
    INDEX 01 01:25:55
  TRACK 56 AUDIO
    TITLE "0:"
    INDEX 01 01:26:70
  TRACK 57 AUDIO
    TITLE "6:cjc108_0667"
    INDEX 01 01:27:08
  TRACK 58 AUDIO
    TITLE "0:"
    INDEX 01 01:28:16
  TRACK 59 AUDIO
    TITLE "7:cjc108_0668"
    INDEX 01 01:28:39
  TRACK 60 AUDIO
    TITLE "0:"
    INDEX 01 01:34:59
  TRACK 61 AUDIO
    TITLE "5:cjc108_0669"
    INDEX 01 01:35:47
  TRACK 62 AUDIO
    TITLE "0:"
    INDEX 01 01:36:70
  TRACK 63 AUDIO
    TITLE "6:cjc108_0670"
    INDEX 01 01:37:07
  TRACK 64 AUDIO
    TITLE "0:"
    INDEX 01 01:38:02
  TRACK 65 AUDIO
    TITLE "7:cjc108_0671"
    INDEX 01 01:38:24
  TRACK 66 AUDIO
    TITLE "0:"
    INDEX 01 01:44:17
  TRACK 67 AUDIO
    TITLE "5:cjc108_0672"
    INDEX 01 01:44:73
  TRACK 68 AUDIO
    TITLE "0:"
    INDEX 01 01:46:02
  TRACK 69 AUDIO
    TITLE "6:cjc108_0673"
    INDEX 01 01:46:10
  TRACK 70 AUDIO
    TITLE "0:"
    INDEX 01 01:49:33
  TRACK 71 AUDIO
    TITLE "7:cjc108_0674"
    INDEX 01 01:49:45
  TRACK 72 AUDIO
    TITLE "0:"
    INDEX 01 01:54:37
  TRACK 73 AUDIO
    TITLE "5:cjc108_0675"
    INDEX 01 01:55:20
  TRACK 74 AUDIO
    TITLE "0:"
    INDEX 01 01:56:41
  TRACK 75 AUDIO
    TITLE "6:cjc108_0676"
    INDEX 01 01:56:49
  TRACK 76 AUDIO
    TITLE "0:"
    INDEX 01 01:57:72
  TRACK 77 AUDIO
    TITLE "7:cjc108_0677"
    INDEX 01 01:58:25
  TRACK 78 AUDIO
    TITLE "0:"
    INDEX 01 02:04:47
